<svg width="516" height="513" viewBox="0 0 516 513" fill="none" xmlns="http://www.w3.org/2000/svg">
<path d="M298.122 29.4211C326.803 46.0512 351.627 77.3834 365.847 111.367C369.704 112.572 374.042 114.5 378.38 116.91C408.025 134.022 431.886 175.236 431.645 209.219L441.526 215.004C460.808 226.091 476.233 252.843 476.233 275.258V277.186C476.233 299.36 460.567 308.277 441.285 297.19L225.335 172.585C206.053 161.498 190.628 134.504 190.628 112.331V110.403C190.628 91.1213 202.438 81.9627 218.104 87.024C217.863 83.1678 217.622 79.0705 217.622 75.4552C217.622 24.3597 253.775 3.87333 298.122 29.4211Z" fill="#ACF3FD"/>
<path d="M481.294 196.686L471.412 190.902L463.699 194.517L471.412 190.902C471.412 156.919 447.551 115.705 418.147 98.5928C413.809 96.1826 409.471 94.2545 405.615 93.0494C391.395 59.066 366.57 27.7339 337.889 11.1037C315.474 -1.91115 295.229 -3.11623 280.768 5.56037L247.267 20.9854C261.246 15.9241 278.84 18.3342 298.121 29.421C326.802 46.0511 351.627 77.3833 365.847 111.367C369.703 112.572 374.041 114.5 378.38 116.91C408.025 134.022 431.885 175.236 431.644 209.219L441.526 215.004C460.807 226.091 476.232 252.843 476.232 275.258V277.186C476.232 288.273 472.376 295.985 466.11 299.601L505.877 281.283C512.144 277.668 516 269.956 516 258.869V256.941C516 234.767 500.575 207.773 481.294 196.686Z" fill="#84ECFD"/>
<path d="M43.7188 188.831V240.264L88.6058 214.314L88.372 162.881L43.7188 188.831Z" fill="#2195DC"/>
<path d="M43.7181 188.831L0 162.881L0.233787 214.314L43.7181 240.264V188.831V188.831Z" fill="#0078D4"/>
<path d="M88.3713 162.88L44.887 136.93L0 162.88L43.7181 188.831L88.3713 162.88Z" fill="#45CAF2"/>
<path d="M124.375 167.791V194.208L147.286 180.883L147.052 154.698L124.375 167.791Z" fill="#243A5E"/>
<path d="M124.375 167.791L102.165 154.698V180.883L124.375 194.208V167.791Z" fill="#1D4A79"/>
<path d="M147.052 154.698L124.843 141.606L102.165 154.698L124.375 167.79L147.052 154.698Z" fill="#156AB3"/>
<path d="M354.557 174.845L354.323 222.303L313.41 198.457V151.232L354.557 174.845Z" fill="#243A5E"/>
<path d="M354.557 174.845L394.534 151.232V198.457L354.323 222.303L354.557 174.845Z" fill="#1D4A79"/>
<path d="M313.411 151.232L353.622 127.386L394.534 151.232L354.557 174.845L313.411 151.232Z" fill="#156AB3"/>
<path d="M365.584 292.503V320.557L341.037 306.53V278.242L365.584 292.503Z" fill="#45CAF2"/>
<path d="M365.584 292.503L389.664 278.242L389.43 306.53L365.584 320.557V292.503Z" fill="#50E6FF"/>
<path d="M341.036 278.242L365.116 263.981L389.664 278.242L365.584 292.503L341.036 278.242Z" fill="#50E6FF"/>
<path d="M461.425 307.606L477.044 316.583L476.865 379.597L422.109 348.18L422.288 268.29L461.425 290.91V307.606Z" fill="#2195DC"/>
<path d="M464.119 316.583V321.25L432.343 302.759V298.091L464.119 316.583Z" fill="#50E6FF"/>
<path d="M464.119 325.38V330.047L432.343 311.556V306.888L464.119 325.38Z" fill="#50E6FF"/>
<path d="M464.119 333.817V338.485L432.343 319.994V315.505L464.119 333.817Z" fill="#50E6FF"/>
<path d="M461.427 290.91L468.608 286.781V303.477L461.427 307.606V290.91Z" fill="#0078D4"/>
<path d="M422.29 268.289L429.471 263.981L468.608 286.781L461.427 290.91L422.29 268.289Z" fill="#32B0E7"/>
<path d="M461.427 290.91L468.608 286.781L484.406 312.633L477.045 316.762L461.427 290.91Z" fill="#A1F6FF"/>
<path d="M461.427 307.606L468.608 303.477L484.406 312.633L477.045 316.762L461.427 307.606Z" fill="#A1F6FF"/>
<path d="M477.045 316.762L484.405 312.633L484.226 375.648L476.865 379.777L477.045 316.762Z" fill="#32B0E7"/>
<path d="M461.427 290.91L477.045 316.762L461.427 307.607V290.91Z" fill="#50E6FF"/>
<path d="M430.547 348.898L446.166 357.875L445.986 420.889L391.051 389.292L391.23 309.402L430.368 332.022L430.547 348.898Z" fill="#0078D4"/>
<path d="M433.239 357.874L433.059 362.363L401.462 343.871V339.383L433.239 357.874Z" fill="#50E6FF"/>
<path d="M433.239 366.671L433.059 371.16L401.462 352.668V348.18L433.239 366.671Z" fill="#50E6FF"/>
<path d="M433.239 375.109L433.059 379.598L401.462 361.286V356.618L433.239 375.109Z" fill="#50E6FF"/>
<path d="M430.547 332.022L437.728 327.893V344.768L430.547 348.898V332.022Z" fill="#0078D4"/>
<path d="M391.409 309.402L398.591 305.272L437.728 327.893L430.547 332.022L391.409 309.402Z" fill="#32B0E7"/>
<path d="M430.547 332.022L437.728 327.893L453.347 353.745L446.166 357.874L430.547 332.022Z" fill="#A1F6FF"/>
<path d="M430.547 348.898L437.728 344.769L453.347 353.745L446.166 357.874L430.547 348.898Z" fill="#A1F6FF"/>
<path d="M446.166 357.875L453.347 353.745L453.168 416.76L445.987 421.069L446.166 357.875Z" fill="#2195DC"/>
<path d="M430.547 332.022L446.166 357.874L430.547 348.898V332.022Z" fill="#50E6FF"/>
<path d="M398.77 386.778L414.389 395.755L414.21 458.769L359.453 427.352L359.633 347.462L398.77 370.082V386.778Z" fill="#185A97"/>
<path d="M401.462 395.755V400.423L369.686 381.931V377.263L401.462 395.755Z" fill="#0078D4"/>
<path d="M401.462 404.551V409.219L369.686 390.728V386.06L401.462 404.551Z" fill="#0078D4"/>
<path d="M401.462 412.989V417.657L369.686 399.165V394.677L401.462 412.989Z" fill="#0078D4"/>
<path d="M398.77 370.082L406.13 365.773L405.951 382.649L398.77 386.778V370.082Z" fill="#0078D4"/>
<path d="M359.633 347.462L366.814 343.153L406.131 365.774L398.77 370.082L359.633 347.462Z" fill="#2195DC"/>
<path d="M398.77 370.082L406.13 365.773L421.749 391.805L414.568 395.934L398.77 370.082Z" fill="#32B0E7"/>
<path d="M414.569 395.934L421.75 391.805L421.571 454.82L414.39 458.949L414.569 395.934Z" fill="#0078D4"/>
<path d="M398.77 370.082L414.568 395.934L398.77 386.778V370.082Z" fill="#0078D4"/>
<path d="M314.653 464.917V512.142L273.506 488.529V441.304L314.653 464.917Z" fill="#0078D4"/>
<path d="M314.652 464.917L354.863 441.304L354.63 488.529L314.652 512.142V464.917Z" fill="#2195DC"/>
<path d="M273.506 441.304L313.717 417.458L354.864 441.304L314.653 464.917L273.506 441.304Z" fill="#45CAF2"/>
<path d="M294.935 300.499L294.565 314.576C294.565 325.689 287.172 337.173 272.385 345.693C242.81 363.104 194.752 363.104 164.808 345.693C149.651 337.173 142.258 325.689 142.258 314.205L142.627 300.128C142.627 311.612 150.021 322.726 165.178 331.616C195.122 349.027 243.18 349.027 272.754 331.616C287.542 323.096 294.935 311.612 294.935 300.499Z" fill="#E6E6E6"/>
<path d="M297.893 178.991L297.523 308.648C297.523 320.503 289.76 331.987 274.603 340.877C243.92 358.659 193.643 358.659 162.59 340.877C147.064 331.616 139.3 319.762 139.3 307.907L139.67 178.25C139.67 190.105 147.433 201.959 162.96 210.85C194.013 228.631 244.289 228.631 274.973 210.85C290.499 202.329 297.893 190.475 297.893 178.991Z" fill="url(#paint0_linear)"/>
<path d="M297.893 175.657L297.523 190.475C297.523 202.33 289.76 213.814 274.603 222.704C243.92 240.486 193.643 240.486 162.59 222.704C147.064 213.814 139.3 201.959 139.3 190.105L139.67 175.287C139.67 187.141 147.433 198.996 162.96 207.886C194.013 225.668 244.289 225.668 274.973 207.886C290.499 198.996 297.893 187.512 297.893 175.657Z" fill="#E6E6E6"/>
<path d="M274.601 146.021C305.654 163.803 305.654 193.068 274.97 211.22C244.287 229.002 194.011 229.002 162.958 211.22C131.904 193.068 131.904 164.173 162.588 146.021C193.641 128.24 243.548 128.24 274.601 146.021Z" fill="white"/>
<path d="M261.664 153.801C285.324 167.507 285.324 189.734 262.034 203.441C238.374 217.148 200.297 217.148 176.638 203.441C152.609 189.734 152.239 167.507 175.899 153.801C199.558 140.094 237.635 140.094 261.664 153.801Z" fill="#E6E6E6"/>
<path d="M332.603 377.344L332.363 386.487C332.363 393.706 327.561 401.165 317.956 406.699C298.746 418.008 267.531 418.008 248.081 406.699C238.237 401.165 233.434 393.706 233.434 386.247L233.674 377.103C233.674 384.562 238.477 391.781 248.322 397.556C267.771 408.865 298.987 408.865 318.196 397.556C327.801 392.021 332.603 384.562 332.603 377.344Z" fill="#E6E6E6"/>
<path d="M334.524 298.42L334.284 382.637C334.284 390.337 329.242 397.796 319.397 403.571C299.467 415.121 266.811 415.121 246.641 403.571C236.556 397.555 231.513 389.856 231.513 382.156L231.753 297.939C231.753 305.639 236.796 313.339 246.881 319.114C267.051 330.663 299.707 330.663 319.637 319.114C329.722 313.579 334.524 305.88 334.524 298.42Z" fill="url(#paint1_linear)"/>
<path d="M334.524 296.255L334.284 305.88C334.284 313.58 329.242 321.039 319.397 326.814C299.467 338.363 266.811 338.363 246.641 326.814C236.556 321.039 231.513 313.339 231.513 305.639L231.753 296.014C231.753 303.714 236.796 311.414 246.881 317.189C267.051 328.739 299.707 328.739 319.637 317.189C329.722 311.414 334.524 303.955 334.524 296.255Z" fill="#E6E6E6"/>
<path d="M319.395 277.006C339.565 288.555 339.565 307.564 319.635 319.354C299.705 330.904 267.049 330.904 246.879 319.354C226.709 307.564 226.709 288.796 246.639 277.006C266.809 265.456 299.225 265.456 319.395 277.006Z" fill="white"/>
<path d="M310.993 282.059C326.36 290.961 326.36 305.399 311.233 314.301C295.865 323.204 271.133 323.204 255.765 314.301C240.158 305.399 239.917 290.961 255.285 282.059C270.653 273.156 295.385 273.156 310.993 282.059Z" fill="#E6E6E6"/>
<path d="M79.3544 312.568L79.5882 356.52L117.695 334.31V290.358L79.3544 312.568Z" fill="#50E6FF"/>
<path d="M79.3545 312.568L42.1825 290.358V334.31L79.5883 356.52L79.3545 312.568Z" fill="#45CAF2"/>
<path d="M117.696 290.359L80.2897 268.383L42.1825 290.359L79.3545 312.568L117.696 290.359Z" fill="#84ECFD"/>
<defs>
<linearGradient id="paint0_linear" x1="139.3" y1="266.286" x2="298.069" y2="266.286" gradientUnits="userSpaceOnUse">
<stop stop-color="#4DC2EB"/>
<stop offset="0.585" stop-color="#0078D4"/>
</linearGradient>
<linearGradient id="paint1_linear" x1="231.513" y1="355.122" x2="334.638" y2="355.122" gradientUnits="userSpaceOnUse">
<stop stop-color="#4DC2EB"/>
<stop offset="0.585" stop-color="#0078D4"/>
</linearGradient>
</defs>
</svg>
