<svg data-slug-id="azure-technical-community" viewBox="0 0 640 351" xmlns="http://www.w3.org/2000/svg">
<g clip-path="url(#azure-technical-community:clip0)">
<path d="M122.225 230.021L246.504 163.106L590.92 361.81L478.946 436.464L122.225 230.021Z" stroke="#185A97" stroke-width="2" stroke-miterlimit="10"/>
<path d="M148.377 230.429L246.288 177.705L566.758 362.6L478.474 421.456L148.377 230.429Z" stroke="#2B89BA" stroke-width="2" stroke-miterlimit="10"/>
<path d="M174.528 230.824L246.071 192.305L542.609 363.378L478.002 406.449L174.528 230.824Z" stroke="#3DB7DC" stroke-width="2" stroke-miterlimit="10"/>
<path d="M200.679 231.232L245.854 206.891L518.447 364.156L477.518 391.442L200.679 231.232Z" stroke="#50E6FF" stroke-width="2" stroke-miterlimit="10"/>
<path d="M572.827 319.248L493.621 367.177L248.723 225.456L328.974 177.514L572.827 319.248Z" fill="url(#azure-technical-community:paint0_linear)"/>
<path d="M481.113 91.0276V374.484L236.215 232.749V-50.7068L481.113 91.0276Z" fill="url(#azure-technical-community:paint1_linear)"/>
<path d="M481.113 91.0276V109.656L236.215 -32.0783V-50.7068L481.113 91.0276Z" fill="#9B9BA0"/>
<path d="M236.215 -50.7067L249.768 -58L493.621 82.6888L481.113 91.0276L236.215 -50.7067Z" fill="#CDCDD0"/>
<path d="M493.621 82.6887V367.177L481.113 374.483V91.0275L493.621 82.6887Z" fill="#CDCDD0"/>
<path d="M493.621 82.6887V102.375L481.113 109.669V91.0275L493.621 82.6887Z" fill="#9B9BA0"/>
<path d="M294.484 32.8089L294.395 64.8381L264.661 47.6632L264.75 15.6467L294.484 32.8089Z" fill="#F4F4F4"/>
<path d="M439.712 116.656L439.623 148.685L300.286 68.2297L300.375 36.2133L439.712 116.656Z" fill="#F4F4F4"/>
<path d="M294.484 87.5849L294.395 119.601L264.661 102.439L264.75 70.41L294.484 87.5849Z" fill="#EBEBEB"/>
<path d="M439.712 171.432L439.623 203.449L300.286 123.006L300.375 90.9766L439.712 171.432Z" fill="#EBEBEB"/>
<path d="M294.484 140.665L294.395 172.694L264.661 155.52L264.75 123.503L294.484 140.665Z" fill="#CDCDD0"/>
<path d="M439.712 224.525L439.623 256.542L300.286 176.099L300.375 144.07L439.712 224.525Z" fill="#CDCDD0"/>
<path d="M294.484 194.6L294.395 226.616L264.661 209.454L264.75 177.425L294.484 194.6Z" fill="#EBEBEB"/>
<path d="M439.712 278.447L439.623 310.476L300.286 230.021L300.375 198.004L439.712 278.447Z" fill="#EBEBEB"/>
<path d="M294.472 248.534L294.421 266.436L264.686 249.223L264.737 231.359L294.472 248.534Z" fill="#F4F4F4"/>
<path d="M439.712 332.382L439.661 350.5L300.324 269.853L300.375 251.926L439.712 332.382Z" fill="#F4F4F4"/>
<path d="M279.273 146.263C280.994 147.257 282.435 146.428 282.435 144.439C282.435 142.374 281.071 139.938 279.273 138.969C277.488 137.937 276.06 138.765 276.06 140.755C276.06 142.756 277.552 145.268 279.273 146.263Z" fill="white"/>
<path d="M279.273 147.64C276.06 145.778 273.433 147.295 273.433 151.006V151.835L285.1 158.58V157.751C285.113 154.04 282.499 149.501 279.273 147.64Z" fill="white"/>
<path d="M279.273 94.9801C280.994 95.9747 282.435 95.1459 282.435 93.1568C282.435 91.0912 281.071 88.6559 279.273 87.6869C277.488 86.6541 276.06 87.4829 276.06 89.4719C276.06 91.4738 277.552 93.9856 279.273 94.9801Z" fill="white"/>
<path d="M279.273 96.3573C276.06 94.4957 273.433 96.013 273.433 99.7234V100.552L285.1 107.297V106.468C285.113 102.745 282.499 98.2061 279.273 96.3573Z" fill="white"/>
<path d="M279.273 201.753C280.994 202.747 282.435 201.918 282.435 199.929C282.435 197.864 281.071 195.428 279.273 194.459C277.488 193.427 276.06 194.255 276.06 196.245C276.06 198.246 277.552 200.758 279.273 201.753Z" fill="white"/>
<path d="M279.273 203.13C276.06 201.268 273.433 202.785 273.433 206.496V207.325L285.1 214.07V213.241C285.113 209.53 282.499 204.991 279.273 203.13Z" fill="white"/>
<path d="M279.273 40.9183C280.994 41.9128 282.435 41.084 282.435 39.0949C282.435 37.0294 281.071 34.594 279.273 33.625C277.488 32.5922 276.06 33.421 276.06 35.41C276.06 37.3991 277.552 39.9237 279.273 40.9183Z" fill="white"/>
<path d="M279.273 42.2953C276.06 40.4337 273.433 41.951 273.433 45.6614V46.4902L285.1 53.2352V52.4064C285.113 48.696 282.499 44.1568 279.273 42.2953Z" fill="white"/>
<path d="M249.692 138.026L249.564 184.412L206.493 159.536L206.621 113.162L249.692 138.026Z" fill="white"/>
<path d="M460.062 259.474L459.922 305.86L258.094 189.334L258.222 142.948L460.062 259.474Z" fill="white"/>
<path d="M206.62 113.162L213.671 109.554L256.499 133.971L249.691 138.026L206.62 113.162Z" fill="#EBEBEB"/>
<path d="M258.247 142.973L265.299 139.378L467.011 255.483L460.215 259.538L258.247 142.973Z" fill="#EBEBEB"/>
<path d="M256.501 133.971V180.523L249.565 184.412L249.692 138.026L256.501 133.971Z" fill="#CDCDD0"/>
<path d="M466.947 255.432V301.997L460.011 305.873L460.139 259.487L466.947 255.432Z" fill="#CDCDD0"/>
<path d="M448.995 270.988L448.969 277.733L263.475 170.642L263.488 163.884L448.995 270.988Z" fill="#78787D"/>
<path d="M401.665 255.993L401.652 262.739L263.437 182.933L263.45 176.188L401.665 255.993Z" fill="#78787D"/>
<path d="M279.796 162.762L279.783 166.013L263.437 156.807L263.45 153.556L279.796 162.762Z" fill="#9B9BA0"/>
<path d="M299.023 173.842L298.998 177.093L282.652 167.9L282.677 164.636L299.023 173.842Z" fill="#9B9BA0"/>
<path d="M227.468 146.582C230.451 148.303 232.912 146.875 232.912 143.445C232.912 139.888 230.553 135.68 227.468 134.022C224.382 132.25 221.921 133.665 221.921 137.108C221.921 140.538 224.497 144.86 227.468 146.582Z" fill="#0078D4"/>
<path d="M227.468 148.953C221.921 145.753 217.408 148.367 217.408 154.767V156.195L237.528 167.811V166.383C237.528 159.982 233.014 152.154 227.468 148.953Z" fill="#0078D4"/>
<path d="M178.481 62.1861C176.708 63.2061 175.268 65.6925 175.28 67.7198L175.408 112.091C175.408 114.132 176.861 114.96 178.634 113.928L228.182 85.3155L228.208 94.4703L235.73 80.9548L244.796 75.7144C246.568 74.6943 247.996 72.208 247.984 70.1679L247.856 25.7962C247.856 23.7689 246.402 22.9401 244.643 23.9602L178.481 62.1861Z" fill="#0078D4"/>
<path d="M227.852 64.3428C229.331 61.7979 229.336 59.0407 227.862 58.1846C226.389 57.3284 223.996 58.6974 222.517 61.2424C221.038 63.7874 221.034 66.5445 222.507 67.4007C223.98 68.2568 226.374 66.8878 227.852 64.3428Z" fill="#50E6FF"/>
<path d="M212.397 65.8456C210.319 67.0441 208.636 69.9767 208.648 72.3611C208.661 74.7581 210.344 75.7272 212.422 74.5286C214.514 73.3173 216.197 70.4102 216.184 68.0131C216.184 65.6161 214.488 64.647 212.397 65.8456Z" fill="#50E6FF"/>
<path d="M202.297 79.1064C203.776 76.5614 203.78 73.8043 202.307 72.9481C200.833 72.0919 198.44 73.461 196.961 76.006C195.482 78.5509 195.478 81.3081 196.951 82.1642C198.425 83.0204 200.818 81.6513 202.297 79.1064Z" fill="#50E6FF"/>
<path d="M107.103 2.79427C104.324 4.40083 102.067 8.28973 102.08 11.5028L102.271 81.1587C102.284 84.3591 104.553 85.6469 107.333 84.0403L121.562 75.829L133.446 83.3646L133.408 68.9948L211.198 24.0748C213.978 22.4683 216.235 18.5666 216.222 15.3662L216.031 -54.2896C216.018 -57.5028 213.748 -58.7778 210.969 -57.1712L107.103 2.79427Z" fill="#50E6FF"/>
<path d="M145.116 28.5284C147.434 24.5405 147.437 20.2176 145.123 18.8729C142.81 17.5283 139.055 19.6711 136.738 23.659C134.42 27.6469 134.416 31.9698 136.73 33.3145C139.044 34.6591 142.798 32.5163 145.116 28.5284Z" fill="#0078D4"/>
<path d="M165.194 16.9458C167.512 12.9578 167.515 8.63495 165.202 7.2903C162.888 5.94565 159.134 8.08844 156.816 12.0764C154.498 16.0643 154.495 20.3872 156.808 21.7318C159.122 23.0765 162.876 20.9337 165.194 16.9458Z" fill="#0078D4"/>
<path d="M181.043 -3.88686C177.767 -1.99979 175.127 2.57764 175.14 6.33903C175.153 10.1004 177.805 11.6177 181.082 9.73066C184.359 7.84358 186.998 3.26616 186.985 -0.49523C186.985 -4.26937 184.32 -5.77393 181.043 -3.88686Z" fill="#0078D4"/>
<path d="M247.078 395.063C291.583 395.063 327.661 375.813 327.661 352.068C327.661 328.323 291.583 309.073 247.078 309.073C202.573 309.073 166.495 328.323 166.495 352.068C166.495 375.813 202.573 395.063 247.078 395.063Z" fill="url(#azure-technical-community:paint2_linear)"/>
<path d="M230.706 283.892C253.409 283.892 271.814 265.487 271.814 242.784C271.814 220.081 253.409 201.677 230.706 201.677C208.003 201.677 189.599 220.081 189.599 242.784C189.599 265.487 208.003 283.892 230.706 283.892Z" fill="url(#azure-technical-community:paint3_linear)"/>
<path d="M296.869 351.686C296.333 335.518 284.348 318.063 272.949 308.602C243.941 284.503 201.508 289.259 178.174 319.223C169.096 330.864 160.515 348.052 166.265 362.868C173.559 382.516 199.646 397.078 230.694 397.078C261.767 397.078 287.841 382.516 295.147 362.868C296.473 359.285 296.996 355.524 296.869 351.686Z" fill="url(#azure-technical-community:paint4_linear)"/>
<path d="M460.521 200.325C461.656 200.975 462.574 202.569 462.561 203.857L462.485 232.201C462.485 233.502 461.554 234.024 460.419 233.374L428.76 215.103L428.747 220.955L423.94 212.323L418.151 208.982C417.017 208.332 416.111 206.751 416.111 205.438L416.188 177.093C416.188 175.793 417.119 175.27 418.241 175.92L460.521 200.325Z" fill="#0078D4"/>
<path d="M432.368 203.679C433.305 203.134 433.3 201.374 432.355 199.749C431.41 198.123 429.885 197.247 428.947 197.792C428.009 198.337 428.015 200.096 428.96 201.722C429.904 203.347 431.43 204.223 432.368 203.679Z" fill="#50E6FF"/>
<path d="M438.845 202.658C440.171 203.423 441.243 205.298 441.243 206.815C441.243 208.345 440.159 208.97 438.833 208.192C437.494 207.427 436.423 205.553 436.423 204.022C436.436 202.518 437.519 201.893 438.845 202.658Z" fill="#50E6FF"/>
<path d="M448.704 213.112C449.641 212.568 449.636 210.808 448.691 209.182C447.746 207.557 446.221 206.681 445.283 207.226C444.345 207.77 444.351 209.53 445.296 211.155C446.24 212.781 447.766 213.657 448.704 213.112Z" fill="#50E6FF"/>
<path d="M506.117 162.379C507.889 163.399 509.33 165.886 509.33 167.939L509.203 212.438C509.203 214.478 507.749 215.307 505.977 214.274L496.886 209.021L489.299 213.828L489.325 204.647L439.623 175.946C437.851 174.926 436.41 172.427 436.41 170.387L436.538 125.888C436.538 123.835 437.991 123.019 439.763 124.051L506.117 162.379Z" fill="#50E6FF"/>
<path d="M487.201 181.878C488.675 181.022 488.667 178.259 487.185 175.708C485.702 173.157 483.306 171.783 481.832 172.64C480.359 173.496 480.366 176.258 481.849 178.809C483.332 181.36 485.728 182.734 487.201 181.878Z" fill="#0078D4"/>
<path d="M474.383 174.467C475.857 173.611 475.849 170.849 474.366 168.298C472.884 165.747 470.487 164.373 469.014 165.229C467.541 166.085 467.548 168.848 469.031 171.399C470.513 173.95 472.91 175.324 474.383 174.467Z" fill="#0078D4"/>
<path d="M458.876 158.108C460.968 159.319 462.663 162.239 462.651 164.649C462.638 167.059 460.942 168.028 458.851 166.817C456.76 165.605 455.064 162.685 455.077 160.276C455.09 157.878 456.785 156.909 458.876 158.108Z" fill="#0078D4"/>
</g>
<defs>
<linearGradient id="azure-technical-community:paint0_linear" x1="381.097" y1="311.083" x2="457.662" y2="211.154" gradientUnits="userSpaceOnUse">
<stop offset="0.0349" stop-color="#1A1A1F"/>
<stop offset="0.7914" stop-color="#1A1A1F" stop-opacity="0"/>
</linearGradient>
<linearGradient id="azure-technical-community:paint1_linear" x1="441.192" y1="72.3991" x2="269.906" y2="258.142" gradientUnits="userSpaceOnUse">
<stop stop-color="white"/>
<stop offset="1" stop-color="#F4F4F4"/>
</linearGradient>
<linearGradient id="azure-technical-community:paint2_linear" x1="204.434" y1="367.044" x2="415.029" y2="293.102" gradientUnits="userSpaceOnUse">
<stop stop-color="#1A1A1F"/>
<stop offset="0.5979" stop-color="#1A1A1F" stop-opacity="0"/>
</linearGradient>
<linearGradient id="azure-technical-community:paint3_linear" x1="200.125" y1="260.469" x2="262.677" y2="224.306" gradientUnits="userSpaceOnUse">
<stop stop-color="#185A97"/>
<stop offset="0.2264" stop-color="#1962A1"/>
<stop offset="0.605" stop-color="#1D78BA"/>
<stop offset="1" stop-color="#2195DC"/>
</linearGradient>
<linearGradient id="azure-technical-community:paint4_linear" x1="193.948" y1="385.052" x2="262.593" y2="317.679" gradientUnits="userSpaceOnUse">
<stop stop-color="#185A97"/>
<stop offset="0.2297" stop-color="#1963A1"/>
<stop offset="0.6188" stop-color="#1D79BC"/>
<stop offset="1" stop-color="#2195DC"/>
</linearGradient>
<clipPath id="azure-technical-community:clip0">
<rect width="638" height="351" fill="white" transform="translate(1)"/>
</clipPath>
</defs>
</svg>
