<svg width="288" height="288" viewBox="0 0 288 288" fill="none" xmlns="http://www.w3.org/2000/svg">
<mask id="mask0" mask-type="alpha" maskUnits="userSpaceOnUse" x="0" y="0" width="288" height="288">
<rect width="288" height="288" fill="#C4C4C4"/>
</mask>
<g mask="url(#mask0)">
<path d="M145.948 123.409L145.711 132.252C145.711 139.233 140.979 146.446 131.516 151.798C112.588 162.734 81.8306 162.734 62.6663 151.798C52.9659 146.446 48.234 139.233 48.234 132.019L48.4706 123.177C48.4706 130.39 53.2025 137.371 62.9029 142.956C82.0672 153.892 112.825 153.892 131.752 142.956C141.216 137.604 145.948 130.39 145.948 123.409Z" fill="#E6E6E6"/>
<path d="M147.841 47.087L147.604 128.529C147.604 135.975 142.636 143.188 132.935 148.773C113.298 159.942 81.1208 159.942 61.2468 148.773C51.3098 142.956 46.3413 135.51 46.3413 128.064L46.5779 46.6216C46.5779 54.0677 51.5464 61.5138 61.4834 67.0984C81.3574 78.2676 113.534 78.2676 133.172 67.0984C143.109 61.7465 147.841 54.3004 147.841 47.087Z" fill="url(#paint0_linear)"/>
<path d="M147.841 44.992L147.604 54.2997C147.604 61.7459 142.636 68.9594 132.935 74.544C113.298 85.7133 81.1208 85.7133 61.2468 74.544C51.3098 68.9594 46.3413 61.5132 46.3413 54.067L46.5779 44.7593C46.5779 52.2055 51.5464 59.6517 61.4834 65.2363C81.3574 76.4056 113.534 76.4056 133.172 65.2363C143.109 59.6517 147.841 52.4382 147.841 44.992Z" fill="#E6E6E6"/>
<path d="M132.935 26.377C152.809 37.5463 152.809 55.9291 133.172 67.331C113.534 78.5003 81.3571 78.5003 61.4831 67.331C41.6091 55.9291 41.6091 37.779 61.2465 26.377C81.1205 15.2077 113.061 15.2077 132.935 26.377Z" fill="white"/>
<path d="M124.654 31.2633C139.797 39.8728 139.797 53.8343 124.891 62.4438C109.749 71.0533 85.3796 71.0533 70.2375 62.4438C54.8588 53.8343 54.6222 39.8728 69.7643 31.2633C84.9064 22.6538 109.276 22.6538 124.654 31.2633Z" fill="#E6E6E6"/>
<path d="M56.8207 149.724L56.7143 153.7C56.7143 156.839 54.5864 160.083 50.3306 162.49C41.8189 167.408 27.9873 167.408 19.3693 162.49C15.007 160.083 12.8791 156.839 12.8791 153.595L12.9855 149.619C12.9855 152.863 15.1134 156.002 19.4757 158.513C28.0937 163.431 41.9253 163.431 50.4369 158.513C54.6928 156.107 56.8207 152.863 56.8207 149.724Z" fill="#E6E6E6"/>
<path d="M57.6719 115.402L57.5655 152.026C57.5655 155.375 55.3312 158.619 50.9689 161.13C42.1381 166.153 27.6682 166.153 18.7309 161.13C14.2623 158.514 12.028 155.165 12.028 151.817L12.1344 115.193C12.1344 118.541 14.3687 121.89 18.8373 124.401C27.7746 129.424 42.2445 129.424 51.0753 124.401C55.544 121.994 57.6719 118.646 57.6719 115.402Z" fill="url(#paint1_linear)"/>
<path d="M57.6719 114.46L57.5655 118.645C57.5655 121.994 55.3312 125.238 50.9689 127.75C42.1381 132.773 27.6682 132.773 18.7309 127.75C14.2623 125.238 12.028 121.889 12.028 118.541L12.1344 114.355C12.1344 117.704 14.3687 121.052 18.8373 123.564C27.7746 128.587 42.2445 128.587 51.0753 123.564C55.544 121.052 57.6719 117.808 57.6719 114.46Z" fill="#E6E6E6"/>
<path d="M50.9688 106.088C59.9061 111.111 59.9061 119.378 51.0752 124.505C42.2443 129.528 27.7744 129.528 18.8372 124.505C9.89989 119.378 9.89989 111.216 18.7308 106.088C27.668 101.066 42.0315 101.066 50.9688 106.088Z" fill="white"/>
<path d="M47.2451 108.286C54.0545 112.157 54.0545 118.436 47.3515 122.308C40.5422 126.179 29.5834 126.179 22.774 122.308C15.8583 118.436 15.7519 112.157 22.5612 108.286C29.3706 104.414 40.3294 104.414 47.2451 108.286Z" fill="#E6E6E6"/>
<path opacity="0.03" d="M58.8872 167.502L73.6906 158.771L86.2471 166.5L71.708 175.947L58.8872 167.502Z" fill="url(#paint2_linear)"/>
<path d="M53.3359 165.785L53.4681 192.694L75.0125 179.096V152.188L53.3359 165.785Z" fill="#50E6FF"/>
<path d="M53.3359 165.785L32.3203 152.188V179.096L53.4681 192.694L53.3359 165.785Z" fill="#45CAF2"/>
<path d="M231.73 143.261L231.598 172.316L208.468 157.717V128.804L231.73 143.261Z" fill="#243A5E"/>
<path d="M231.73 143.261L254.332 128.804V157.717L231.598 172.316L231.73 143.261Z" fill="#1D4A79"/>
<path d="M208.468 128.805L231.202 114.207L254.332 128.805L231.73 143.261L208.468 128.805Z" fill="#156AB3"/>
<path d="M220.654 69.9728V98.8851L197.391 84.429V55.5166L220.654 69.9728Z" fill="#0078D4"/>
<path d="M220.653 69.9728L243.387 55.5166L243.255 84.429L220.653 98.8851V69.9728Z" fill="#2195DC"/>
<path d="M197.391 55.517L220.125 40.918L243.387 55.517L220.653 69.9729L197.391 55.517Z" fill="#45CAF2"/>
<path d="M265.647 105.918V123.094L251.769 114.506V97.1875L265.647 105.918Z" fill="#45CAF2"/>
<path d="M265.646 105.919L279.26 97.1875L279.128 114.507L265.646 123.095V105.919Z" fill="#50E6FF"/>
<path d="M251.768 97.1868L265.382 88.4561L279.261 97.1868L265.647 105.918L251.768 97.1868Z" fill="#50E6FF"/>
<path opacity="0.15" d="M8 230.194L109.774 169.649L212.869 244.793C214.72 246.081 214.587 249.087 212.737 250.375L129.732 304.192C125.899 306.626 121.008 306.626 117.175 304.049L8 230.194Z" fill="url(#paint3_linear)"/>
<path d="M217.761 104.669L208.376 220.891L90.4773 150.757L96.1608 41.5484C96.4251 39.1152 98.9364 37.827 100.787 38.972L217.761 104.669Z" fill="#0078D4"/>
<path opacity="0.5" d="M217.761 104.669L208.376 220.891L90.4773 150.757L96.2929 40.6893C96.5573 38.6855 98.5399 37.5405 100.126 38.5424L217.761 104.669Z" fill="#50E6FF"/>
<path d="M88.2295 147.894L8.92535 196.272L16.5914 201.568L126.956 269.698L129.336 271.273L207.715 223.753L210.49 222.322L208.772 219.603L92.0626 148.037C90.873 147.178 89.4191 147.035 88.2295 147.894Z" fill="#0078D4"/>
<path d="M108.85 226.043L90.478 237.35C89.9493 237.636 89.2885 237.636 88.7598 237.35L61.3998 220.318C60.8711 220.031 60.8711 219.172 61.3998 218.886L79.5076 207.579C80.0363 207.293 80.6972 207.293 81.2259 207.579L108.85 224.611C109.379 224.898 109.379 225.756 108.85 226.043Z" fill="#50E6FF"/>
<path d="M9.05842 195.413C9.32277 196.129 9.85146 196.988 10.6445 197.56C24.3906 208.438 121.406 267.551 124.578 269.412C128.015 271.415 127.883 272.131 132.641 269.268C136.87 266.692 195.82 231.196 208.244 223.037C209.83 222.035 209.83 220.032 209.83 220.032C210.623 219.459 211.02 224.755 210.623 227.188C210.491 228.047 209.698 229.335 209.037 229.764C200.314 235.49 136.342 274.421 133.169 276.854C127.75 281.005 126.429 279.86 122.86 276.854C117.969 272.704 18.4427 211.157 9.32277 204.287C8.79407 203.858 8.52972 203.285 8.52972 202.713L8.6619 195.699C8.6619 195.699 8.79407 194.841 9.05842 195.413Z" fill="#0078D4"/>
<g opacity="0.5">
<path opacity="0.5" d="M9.05842 195.413C9.32277 196.129 9.85146 196.988 10.6445 197.56C24.3906 208.438 121.406 267.551 124.578 269.412C128.015 271.416 127.883 272.131 132.641 269.269C136.87 266.692 195.82 231.196 208.244 223.037C209.83 222.035 209.83 220.032 209.83 220.032C210.623 219.459 210.888 224.755 210.623 227.188C210.491 228.047 209.698 229.335 209.037 229.765C200.314 235.49 136.342 274.421 133.169 276.855C127.75 281.005 126.164 279.717 122.86 276.855C117.969 272.561 18.4427 211.158 9.32277 204.287C8.79407 203.858 8.52972 203.285 8.52972 202.713L8.6619 195.699C8.6619 195.699 8.79407 194.841 9.05842 195.413Z" fill="#50E6FF"/>
</g>
<path d="M125.503 271.559L9.4543 198.848C8.66126 198.133 8.66126 197.131 8.79343 196.702C8.79343 196.129 9.05778 195.413 9.58647 194.984L87.3046 147.178C88.2298 146.463 89.5515 146.606 90.4767 147.178L209.433 219.173C210.226 219.602 210.49 221.177 210.49 222.036C210.49 222.894 210.094 223.753 209.301 224.326L130.79 271.559C129.997 272.131 129.071 272.274 128.146 272.274C127.221 272.417 126.296 272.131 125.503 271.559ZM11.9656 196.415C11.8334 196.558 11.5691 196.702 11.5691 196.845C11.5691 197.131 11.7013 197.417 11.9656 197.56L126.296 268.982C127.618 269.841 129.204 269.841 130.393 268.982L207.583 222.322C207.979 222.036 208.243 221.606 208.243 221.177C208.243 220.604 207.979 220.175 207.583 219.889L89.0228 148.753L11.9656 196.415Z" fill="#0078D4"/>
<path d="M91.9314 148.037C91.9314 148.037 92.328 149.468 93.5176 150.899C94.3106 151.758 90.874 149.325 90.874 149.325L91.9314 148.037Z" fill="#0078D4"/>
<path d="M97.086 144.746L202.296 206.864L210.491 110.108L102.241 50.2792C102.109 50.1361 101.844 50.1361 101.712 50.2792C101.58 50.4224 101.448 50.5655 101.448 50.7086C101.316 50.7086 96.8217 144.602 97.086 144.746Z" fill="#9B9BA0"/>
<path d="M97.086 144.746L202.296 206.864L210.491 110.108L102.241 50.2792C102.109 50.1361 101.844 50.1361 101.712 50.2792C101.58 50.4224 101.448 50.5655 101.448 50.7086C101.316 50.7086 96.8217 144.602 97.086 144.746Z" fill="#E1E1E1"/>
<path d="M90.4772 146.321C91.2703 138.448 95.1033 45.5567 95.2355 42.2647C95.3677 38.8296 98.2755 35.1082 101.712 36.9689C103.298 37.8277 213.927 100.089 215.513 101.234C219.743 104.097 219.082 105.242 219.082 111.254C218.95 115.834 210.887 214.451 210.227 217.457C209.301 222.037 211.152 220.749 208.376 220.462V220.319H208.244C207.583 220.176 207.187 219.603 207.319 218.888C207.319 218.602 215.91 113.83 215.91 113.83C216.439 107.103 215.646 106.244 213.663 104.67C211.945 103.381 101.051 40.404 101.051 40.404C101.051 40.404 99.0685 39.5452 98.0111 40.9765C97.4825 41.6922 97.2181 42.8372 96.9538 44.5548C96.5572 47.8468 92.9885 140.595 92.1955 148.468C92.0633 149.899 92.1955 149.326 92.3277 150.042C92.592 150.615 91.799 149.47 91.2703 149.613C90.7416 149.899 91.5346 150.615 91.2703 149.899C90.8738 148.611 90.3451 147.895 90.4772 146.321Z" fill="#0078D4"/>
<path d="M90.3454 171.654L85.1906 174.946L92.328 179.383L97.4828 176.091L90.3454 171.654Z" fill="#50E6FF"/>
<path d="M99.3328 177.235L94.178 180.527L100.126 184.248L105.281 180.956L99.3328 177.235Z" fill="#50E6FF"/>
<path d="M107.132 182.102L101.977 185.394L107.925 189.115L113.08 185.823L107.132 182.102Z" fill="#50E6FF"/>
<path d="M84.53 176.663L71.9736 168.934L66.6866 172.226L79.2431 180.099L84.53 176.663Z" fill="#50E6FF"/>
<path d="M139.514 226.329L144.537 223.18L138.192 219.172L133.302 222.321L139.514 226.329Z" fill="#50E6FF"/>
<path d="M146.652 230.767L151.675 227.618L146.52 224.326L141.497 227.475L146.652 230.767Z" fill="#50E6FF"/>
<path d="M131.452 197.417L126.429 200.566L132.641 204.573L137.796 201.282L131.452 197.417Z" fill="#50E6FF"/>
<path d="M134.492 207.866L129.073 211.301L135.285 215.022L140.572 211.73L134.492 207.866Z" fill="#50E6FF"/>
<path d="M142.422 212.875L137.135 216.31L143.479 220.318L148.898 216.883L142.422 212.875Z" fill="#50E6FF"/>
<path d="M140.968 209.726L145.99 206.434L139.646 202.57L134.624 205.719L140.968 209.726Z" fill="#50E6FF"/>
<path d="M126.826 203.143L121.539 206.435L127.222 210.013L132.509 206.721L126.826 203.143Z" fill="#50E6FF"/>
<path d="M148.899 214.736L154.054 211.444L147.974 207.579L142.819 210.871L148.899 214.736Z" fill="#50E6FF"/>
<path d="M122.993 192.122L117.838 195.27L124.446 199.421L129.601 196.129L122.993 192.122Z" fill="#50E6FF"/>
<path d="M114.93 186.969L109.775 190.261L115.987 194.125L121.142 190.833L114.93 186.969Z" fill="#50E6FF"/>
<path d="M108.982 207.151L114.004 204.002L108.057 200.28L103.034 203.572L108.982 207.151Z" fill="#50E6FF"/>
<path d="M116.252 211.73L121.274 208.581L115.987 205.146L110.965 208.438L116.252 211.73Z" fill="#50E6FF"/>
<path d="M86.5124 177.808L81.0933 181.244L87.702 185.395L93.1212 181.959L86.5124 177.808Z" fill="#50E6FF"/>
<path d="M101.184 202.284L106.206 199.135L100.391 195.557L95.5004 198.706L101.184 202.284Z" fill="#50E6FF"/>
<path d="M151.938 225.614L157.358 222.179L150.749 218.028L145.33 221.463L151.938 225.614Z" fill="#50E6FF"/>
<path d="M164.892 224.611L169.914 221.463L163.834 217.599L158.812 220.89L164.892 224.611Z" fill="#50E6FF"/>
<path d="M131.319 221.177L136.342 218.028L130.923 214.593L125.9 217.742L131.319 221.177Z" fill="#50E6FF"/>
<path d="M119.291 198.419L114.005 201.855L119.556 205.29L124.975 201.855L119.291 198.419Z" fill="#50E6FF"/>
<path d="M111.229 193.267L105.81 196.702L112.154 200.567L117.441 197.275L111.229 193.267Z" fill="#50E6FF"/>
<path d="M103.299 188.401L98.0118 191.836L103.96 195.557L109.246 192.122L103.299 188.401Z" fill="#50E6FF"/>
<path d="M123.918 216.596L128.94 213.304L123.257 209.726L118.234 212.874L123.918 216.596Z" fill="#50E6FF"/>
<path d="M94.9716 183.248L89.6847 186.54L96.029 190.547L101.448 187.255L94.9716 183.248Z" fill="#50E6FF"/>
<path d="M163.173 208.868L158.282 211.874L164.23 215.595L169.121 212.589L163.173 208.868Z" fill="#50E6FF"/>
<path d="M93.5177 197.562L98.5403 194.412L92.989 190.833L87.9663 194.126L93.5177 197.562Z" fill="#50E6FF"/>
<path d="M156.168 204.431L151.278 207.58L156.433 210.728L161.323 207.723L156.168 204.431Z" fill="#50E6FF"/>
<path d="M170.972 213.733L166.081 216.882L172.954 221.033L177.713 217.884L170.972 213.733Z" fill="#50E6FF"/>
<path d="M155.904 212.59L150.749 215.882L156.829 219.746L161.984 216.454L155.904 212.59Z" fill="#50E6FF"/>
<path d="M187.889 222.035L192.515 219.173L183.395 213.448L178.769 216.454L187.889 222.035Z" fill="#50E6FF"/>
<path d="M148.634 199.707L143.743 202.856L149.427 206.435L154.317 203.286L148.634 199.707Z" fill="#50E6FF"/>
<path d="M117.177 180.099L112.286 183.248L118.499 187.112L123.389 183.963L117.177 180.099Z" fill="#50E6FF"/>
<path d="M176.919 215.166L181.546 212.303L175.73 208.725L171.236 211.588L176.919 215.166Z" fill="#50E6FF"/>
<path d="M108.718 174.802L103.827 177.808L110.436 182.102L115.326 178.953L108.718 174.802Z" fill="#50E6FF"/>
<path d="M101.184 170.079L96.2936 173.228L101.845 176.663L106.735 173.514L101.184 170.079Z" fill="#50E6FF"/>
<path d="M141.101 194.984L136.21 198.133L141.894 201.711L146.784 198.562L141.101 194.984Z" fill="#50E6FF"/>
<path d="M133.302 190.117L128.411 193.266L134.227 196.987L139.118 193.839L133.302 190.117Z" fill="#50E6FF"/>
<path d="M88.4949 170.509L78.8463 164.497L73.8237 167.789L83.3402 173.801L88.4949 170.509Z" fill="#50E6FF"/>
<path d="M125.239 185.108L120.349 188.257L126.429 191.978L131.319 188.972L125.239 185.108Z" fill="#50E6FF"/>
<path d="M106.867 171.51L111.494 168.647L106.471 165.499L101.845 168.361L106.867 171.51Z" fill="#50E6FF"/>
<path d="M169.253 210.442L173.879 207.579L167.403 203.428L162.777 206.434L169.253 210.442Z" fill="#50E6FF"/>
<path d="M114.269 176.091L118.763 173.228L113.344 169.793L108.85 172.656L114.269 176.091Z" fill="#50E6FF"/>
<path d="M122.067 180.957L126.693 178.094L120.745 174.373L116.119 177.235L122.067 180.957Z" fill="#50E6FF"/>
<path d="M97.0867 159.631L91.7998 156.339L87.3059 159.201L92.4607 162.493L97.0867 159.631Z" fill="#50E6FF"/>
<path d="M91.5354 164.068L85.4554 160.347L80.5649 163.352L86.6449 167.216L91.5354 164.068Z" fill="#50E6FF"/>
<path d="M99.9945 167.217L104.621 164.354L98.9371 160.776L94.311 163.639L99.9945 167.217Z" fill="#50E6FF"/>
<path d="M160.794 205.146L165.42 202.284L160.265 199.135L155.771 201.998L160.794 205.146Z" fill="#50E6FF"/>
<path d="M130.262 186.11L134.888 183.247L128.544 179.239L124.05 182.102L130.262 186.11Z" fill="#50E6FF"/>
<path d="M153.789 200.852L158.415 197.846L152.732 194.268L148.106 197.274L153.789 200.852Z" fill="#50E6FF"/>
<path d="M146.255 195.986L150.749 193.123L144.934 189.401L140.308 192.407L146.255 195.986Z" fill="#50E6FF"/>
<path d="M138.457 191.12L142.951 188.257L136.738 184.392L132.112 187.255L138.457 191.12Z" fill="#50E6FF"/>
<path d="M93.5178 165.212L88.4951 168.361L94.443 171.939L99.3334 168.934L93.5178 165.212Z" fill="#50E6FF"/>
<path d="M119.159 215.738L113.74 219.173L119.952 223.037L125.371 219.602L119.159 215.738Z" fill="#50E6FF"/>
<path d="M110.436 210.299L111.493 211.014L106.206 214.449L111.89 218.028L117.309 214.593L110.436 210.299Z" fill="#50E6FF"/>
<path d="M74.6168 179.383L64.9681 173.372L59.9456 176.521L69.5942 182.532L74.6168 179.383Z" fill="#50E6FF"/>
<path d="M58.2274 177.665L52.8082 181.1L58.6239 184.821L64.1752 181.386L58.2274 177.665Z" fill="#50E6FF"/>
<path d="M66.0257 182.532L60.6066 185.967L66.1579 189.545L71.577 185.967L66.0257 182.532Z" fill="#50E6FF"/>
<path d="M88.4948 196.558L83.0757 199.994L88.4948 203.429L93.9139 199.994L88.4948 196.558Z" fill="#50E6FF"/>
<path d="M80.8292 191.835L75.4102 195.27L81.0936 198.849L86.6449 195.414L80.8292 191.835Z" fill="#50E6FF"/>
<path d="M73.5594 187.255L68.0081 190.69L73.4272 194.126L78.9786 190.547L73.5594 187.255Z" fill="#50E6FF"/>
<path d="M179.694 219.172L174.804 222.178L181.281 226.329L186.171 223.18L179.694 219.172Z" fill="#50E6FF"/>
<path d="M95.8968 201.139L90.3455 204.574L96.6898 208.581L102.109 205.147L95.8968 201.139Z" fill="#50E6FF"/>
<path d="M104.092 206.292L98.5406 209.726L104.224 213.305L109.775 209.87L104.092 206.292Z" fill="#50E6FF"/>
<path d="M166.742 225.901L174.408 230.624L179.563 227.332L171.897 222.609L166.742 225.901Z" fill="#50E6FF"/>
<path d="M148.634 231.911L160.53 239.498L165.552 236.205L153.525 228.762L148.634 231.911Z" fill="#50E6FF"/>
<path d="M142.422 230.336L137.003 233.772L142.29 237.063L147.709 233.628L142.422 230.336Z" fill="#50E6FF"/>
<path d="M144.141 238.21L153.393 243.935L158.812 240.5L149.56 234.775L144.141 238.21Z" fill="#50E6FF"/>
<path d="M86.1157 192.837L91.1383 189.688L84.6618 185.681L79.6393 188.83L86.1157 192.837Z" fill="#50E6FF"/>
<path d="M127.354 220.748L121.803 224.326L127.487 227.761L132.906 224.326L127.354 220.748Z" fill="#50E6FF"/>
<path d="M134.888 225.471L129.337 229.049L135.152 232.627L140.571 229.049L134.888 225.471Z" fill="#50E6FF"/>
<path d="M77.7893 187.685L82.812 184.536L76.4676 180.528L71.4449 183.677L77.7893 187.685Z" fill="#50E6FF"/>
<path d="M153.921 226.759L167.271 235.203L172.69 231.768L159.208 223.324L153.921 226.759Z" fill="#50E6FF"/>
<path d="M137.506 101.332L140.122 106.74L127.518 114.466L141.074 139.447L137.031 141.765L120.859 111.633L137.506 101.332Z" fill="#0078D4"/>
<path d="M157.721 128.114V141.506L147.019 134.81V121.161L157.721 128.114Z" fill="#50E6FF"/>
<path d="M169.135 120.646L185.307 151.035L168.897 161.079L166.281 155.928L178.886 148.202L165.33 122.964L169.135 120.646Z" fill="#0078D4"/>
<path d="M75.0124 152.188L53.8646 138.733L32.3203 152.188L53.3359 165.785L75.0124 152.188Z" fill="#84ECFD"/>
<path d="M265.416 233.877L265.275 239.152C265.275 243.316 262.452 247.619 256.807 250.811C245.516 257.335 227.169 257.335 215.738 250.811C209.952 247.619 207.129 243.316 207.129 239.013L207.27 233.738C207.27 238.041 210.093 242.205 215.879 245.537C227.311 252.061 245.658 252.061 256.948 245.537C262.593 242.344 265.416 238.041 265.416 233.877Z" fill="#E6E6E6"/>
<path d="M266.545 188.35L266.404 236.931C266.404 241.372 263.44 245.675 257.654 249.006C245.94 255.669 226.746 255.669 214.891 249.006C208.964 245.536 206 241.095 206 236.653L206.141 188.073C206.141 192.514 209.105 196.956 215.032 200.287C226.887 206.95 246.081 206.95 257.795 200.287C263.722 197.095 266.545 192.653 266.545 188.35Z" fill="url(#paint4_linear)"/>
<path d="M266.545 187.101L266.404 192.653C266.404 197.095 263.44 201.398 257.654 204.729C245.94 211.392 226.746 211.392 214.891 204.729C208.964 201.398 206 196.956 206 192.514L206.141 186.962C206.141 191.404 209.105 195.846 215.032 199.177C226.887 205.839 246.081 205.839 257.795 199.177C263.722 195.846 266.545 191.543 266.545 187.101Z" fill="#E6E6E6"/>
<path d="M257.653 175.997C269.508 182.659 269.508 193.625 257.795 200.426C246.081 207.089 226.887 207.089 215.032 200.426C203.177 193.625 203.177 182.798 214.891 175.997C226.746 169.334 245.798 169.334 257.653 175.997Z" fill="white"/>
<path d="M252.714 178.911C261.747 184.047 261.747 192.375 252.855 197.511C243.823 202.647 229.287 202.647 220.254 197.511C211.081 192.375 210.94 184.047 219.972 178.911C229.004 173.776 243.541 173.776 252.714 178.911Z" fill="#E6E6E6"/>
</g>
<defs>
<linearGradient id="paint0_linear" x1="46.3413" y1="101.92" x2="147.953" y2="101.92" gradientUnits="userSpaceOnUse">
<stop stop-color="#4DC2EB"/>
<stop offset="0.585" stop-color="#0078D4"/>
</linearGradient>
<linearGradient id="paint1_linear" x1="12.028" y1="140.06" x2="57.7225" y2="140.06" gradientUnits="userSpaceOnUse">
<stop stop-color="#4DC2EB"/>
<stop offset="0.585" stop-color="#0078D4"/>
</linearGradient>
<linearGradient id="paint2_linear" x1="78.9313" y1="159.226" x2="63.8715" y2="174.983" gradientUnits="userSpaceOnUse">
<stop/>
<stop offset="0.8221" stop-opacity="0"/>
</linearGradient>
<linearGradient id="paint3_linear" x1="154.733" y1="186.186" x2="54.6102" y2="290.937" gradientUnits="userSpaceOnUse">
<stop/>
<stop offset="0.8221" stop-opacity="0"/>
</linearGradient>
<linearGradient id="paint4_linear" x1="206" y1="221.058" x2="266.612" y2="221.058" gradientUnits="userSpaceOnUse">
<stop stop-color="#4DC2EB"/>
<stop offset="0.585" stop-color="#0078D4"/>
</linearGradient>
</defs>
</svg>
