<svg width="285" height="180" viewBox="0 0 285 180" fill="none" xmlns="http://www.w3.org/2000/svg">
  <path d="M282 61.2257V43.7743H263.559C262.749 40.5642 261.477 37.5292 259.859 34.7276L272.924 21.537L260.668 9.16343L247.603 22.3541C244.828 20.7198 241.822 19.4358 238.643 18.6187V0H221.357V18.677C218.178 19.4942 215.172 20.7782 212.455 22.4124L199.39 9.22178L187.134 21.5953L200.199 34.786C198.58 37.5876 197.309 40.5642 196.499 43.7743H178V61.2257H196.499C197.309 64.4358 198.58 67.4708 200.199 70.214L187.134 83.4047L199.39 95.7782L212.455 82.5876C215.23 84.2218 218.178 85.5058 221.357 86.323V105H238.643V86.3813C241.822 85.5642 244.828 84.2802 247.603 82.6459L260.668 95.8366L272.924 83.463L259.859 70.2724C261.477 67.4708 262.749 64.4358 263.559 61.2257H282ZM241.591 65.4864C238.7 68.1129 234.943 69.7471 230.838 69.9222H229.22C220.028 69.5136 212.686 61.8677 212.686 52.4708C212.686 43.1323 220.028 35.428 229.22 35.0195H230.838C234.943 35.1946 238.7 36.8872 241.591 39.4553L242.921 40.7977C245.464 43.6576 247.083 47.2763 247.314 51.3035V53.5798C247.083 57.607 245.464 61.284 242.921 64.0856L241.591 65.4864Z" fill="#0078D4"/>
  <path d="M285 142.823V135.177H276.843C276.485 133.771 275.923 132.441 275.207 131.214L280.986 125.435L275.565 120.014L269.786 125.793C268.559 125.077 267.229 124.515 265.823 124.157V116H258.177V124.182C256.771 124.54 255.441 125.103 254.24 125.819L248.461 120.04L243.04 125.461L248.819 131.24C248.103 132.467 247.54 133.771 247.182 135.177H239V142.823H247.182C247.54 144.229 248.103 145.559 248.819 146.76L243.04 152.539L248.461 157.96L254.24 152.181C255.467 152.897 256.771 153.46 258.177 153.818V162H265.823V153.843C267.229 153.485 268.559 152.923 269.786 152.207L275.565 157.986L280.986 152.565L275.207 146.786C275.923 145.559 276.485 144.229 276.843 142.823H285ZM267.127 144.689C265.848 145.84 264.186 146.556 262.371 146.633H261.655C257.589 146.454 254.342 143.078 254.342 138.987C254.342 134.896 257.589 131.521 261.655 131.342H262.371C264.186 131.419 265.848 132.16 267.127 133.285L267.715 133.873C268.84 135.126 269.556 136.712 269.658 138.476V139.473C269.556 141.237 268.84 142.848 267.715 144.076L267.127 144.689Z" fill="#0078D4"/>
  <path d="M0 61V161.119V170.559V180H231V61H0Z" fill="#50E6FF"/>
  <path d="M219.414 78.7297H12.9482V122.716H219.414V78.7297Z" fill="#0078D4"/>
  <path d="M191.493 88.8943V98.4004L193.049 99.6603L194.415 98.4004V85.7637L191.493 88.8943Z" fill="white"/>
  <path d="M187.433 87.8633H191.417L194.035 85H184.815L187.433 87.8633Z" fill="white"/>
  <path d="M194.415 115.275V102.638L193.049 101.416L191.493 102.638V112.144L194.415 115.275Z" fill="white"/>
  <path d="M191.456 113.099H187.472L184.853 116H194.036L191.456 113.099Z" fill="white"/>
  <path d="M191.38 101.913H187.51L185.992 100.5L187.51 99.2403H191.38L192.898 100.5L191.38 101.913Z" fill="white"/>
  <path d="M205.078 88.8943V98.4004L206.634 99.6603L208 98.4004V85.7637L205.078 88.8943Z" fill="white"/>
  <path d="M198.059 85.7637V98.4004L199.425 99.6603L200.98 98.4004V88.8943L198.059 85.7637Z" fill="white"/>
  <path d="M208 115.275V102.638L206.634 101.416L205.078 102.638V112.144L208 115.275Z" fill="white"/>
  <path d="M204.927 101.913H201.094L199.576 100.5L201.094 99.2403H204.927L206.445 100.5L204.927 101.913Z" fill="white"/>
  <path d="M177.909 88.8943V98.4004L179.503 99.6603L180.831 98.4004V85.7637L177.909 88.8943Z" fill="white"/>
  <path d="M173.849 87.8633H177.833L180.489 85H171.269L173.849 87.8633Z" fill="white"/>
  <path d="M180.831 115.275V102.638L179.465 101.416L177.909 102.638V112.144L180.831 115.275Z" fill="white"/>
  <path d="M164.363 88.8943V98.4004L165.919 99.6603L167.285 98.4004V85.7637L164.363 88.8943Z" fill="white"/>
  <path d="M160.303 87.8633H164.287L166.905 85H157.685L160.303 87.8633Z" fill="white"/>
  <path d="M167.285 115.275V102.638L165.919 101.416L164.363 102.638V112.144L167.285 115.275Z" fill="white"/>
  <path d="M150.02 88.8943V98.4004L151.614 99.6603L152.942 98.4004V85.7637L150.02 88.8943Z" fill="white"/>
  <path d="M143 85.7635V98.4002L144.366 99.6601L145.922 98.4002V88.8941L143 85.7635Z" fill="white"/>
  <path d="M145.96 87.8633H149.944L152.6 85H143.38L145.96 87.8633Z" fill="white"/>
  <path d="M145.922 112.144V102.638L144.366 101.416L143 102.638V115.275L145.922 112.144Z" fill="white"/>
  <path d="M152.942 115.275V102.638L151.576 101.416L150.02 102.638V112.144L152.942 115.275Z" fill="white"/>
  <path d="M150.02 113.099H145.998L143.38 116H152.6L150.02 113.099Z" fill="white"/>
  <path d="M42.4287 139H13V169H42.4287V139Z" fill="#0078D4"/>
  <path d="M86.5713 139H57.1426V169H86.5713V139Z" fill="#0078D4"/>
  <path d="M130.715 139H101.286V169H130.715V139Z" fill="#0078D4"/>
  <path d="M174.857 139H145.429V169H174.857V139Z" fill="#0078D4"/>
  <path d="M219 139H189.571V169H219V139Z" fill="#0078D4"/>
  <path d="M31.9013 149.703C31.4326 150.562 30.9899 151.414 30.5732 152.258C30.1566 153.096 29.7789 153.94 29.4404 154.789C29.1019 155.638 28.8076 156.495 28.5576 157.359C28.3076 158.219 28.1149 159.099 27.9795 160H26.081C26.206 159.198 26.3831 158.398 26.6123 157.602C26.8467 156.799 27.1201 156 27.4326 155.203C27.7451 154.401 28.0941 153.596 28.4795 152.789C28.8701 151.982 29.2842 151.167 29.7217 150.344H24.417V148.797H31.9013V149.703Z" fill="white"/>
  <path d="M68.1006 156.875C68.1006 156.552 68.1396 156.24 68.2178 155.938C68.3011 155.635 68.4235 155.357 68.5849 155.102C68.7464 154.846 68.9495 154.617 69.1943 154.414C69.4391 154.211 69.7256 154.047 70.0537 153.922C69.5693 153.651 69.1839 153.305 68.8974 152.883C68.611 152.456 68.4678 151.984 68.4678 151.469C68.4678 151.057 68.5511 150.677 68.7178 150.328C68.8896 149.979 69.124 149.677 69.4209 149.422C69.723 149.167 70.0771 148.969 70.4834 148.828C70.8896 148.682 71.3323 148.609 71.8115 148.609C72.2959 148.609 72.7412 148.682 73.1474 148.828C73.5589 148.974 73.9131 149.174 74.2099 149.43C74.512 149.685 74.7464 149.987 74.9131 150.336C75.0797 150.685 75.1631 151.062 75.1631 151.469C75.1631 151.984 75.0198 152.456 74.7334 152.883C74.4469 153.305 74.0667 153.651 73.5928 153.922C73.9157 154.047 74.1995 154.211 74.4443 154.414C74.6943 154.612 74.9026 154.839 75.0693 155.094C75.236 155.349 75.361 155.628 75.4443 155.93C75.5276 156.232 75.5693 156.547 75.5693 156.875C75.5693 157.365 75.4782 157.812 75.2959 158.219C75.1136 158.625 74.8584 158.974 74.5303 159.266C74.2021 159.552 73.8089 159.776 73.3506 159.938C72.8922 160.099 72.387 160.18 71.8349 160.18C71.2881 160.18 70.7855 160.099 70.3271 159.938C69.874 159.776 69.4808 159.552 69.1474 159.266C68.8193 158.974 68.5615 158.625 68.374 158.219C68.1917 157.812 68.1006 157.365 68.1006 156.875ZM69.8662 156.719C69.8662 157.036 69.9131 157.323 70.0068 157.578C70.1006 157.833 70.2334 158.049 70.4053 158.227C70.5771 158.404 70.7829 158.539 71.0224 158.633C71.2672 158.727 71.5381 158.773 71.8349 158.773C72.1214 158.773 72.3844 158.727 72.624 158.633C72.8636 158.534 73.0693 158.396 73.2412 158.219C73.4183 158.036 73.5563 157.82 73.6553 157.57C73.7542 157.315 73.8037 157.031 73.8037 156.719C73.8037 156.432 73.7568 156.164 73.6631 155.914C73.5693 155.659 73.4365 155.438 73.2646 155.25C73.0928 155.062 72.8844 154.914 72.6396 154.805C72.4 154.695 72.1318 154.641 71.8349 154.641C71.5537 154.641 71.2907 154.693 71.0459 154.797C70.8063 154.896 70.598 155.039 70.4209 155.227C70.249 155.409 70.1136 155.628 70.0146 155.883C69.9157 156.138 69.8662 156.417 69.8662 156.719ZM70.249 151.656C70.249 151.891 70.2907 152.109 70.374 152.312C70.4573 152.51 70.5693 152.685 70.7099 152.836C70.8506 152.982 71.0146 153.096 71.2021 153.18C71.3948 153.263 71.6006 153.305 71.8193 153.305C72.0381 153.305 72.2412 153.263 72.4287 153.18C72.6214 153.091 72.7881 152.974 72.9287 152.828C73.0745 152.677 73.1891 152.503 73.2724 152.305C73.3558 152.102 73.3974 151.885 73.3974 151.656C73.3974 151.422 73.3558 151.203 73.2724 151C73.1943 150.797 73.0849 150.622 72.9443 150.477C72.8037 150.331 72.637 150.216 72.4443 150.133C72.2516 150.049 72.0433 150.008 71.8193 150.008C71.5849 150.008 71.3714 150.052 71.1787 150.141C70.986 150.224 70.8193 150.341 70.6787 150.492C70.5433 150.643 70.4365 150.82 70.3584 151.023C70.2855 151.221 70.249 151.432 70.249 151.656Z" fill="white"/>
  <path d="M120.435 153.789C120.435 154.909 120.312 155.872 120.067 156.68C119.828 157.487 119.494 158.151 119.067 158.672C118.645 159.193 118.148 159.578 117.575 159.828C117.007 160.073 116.395 160.195 115.739 160.195C115.526 160.195 115.31 160.182 115.091 160.156C114.877 160.13 114.672 160.096 114.474 160.055C114.281 160.013 114.104 159.969 113.942 159.922C113.786 159.87 113.656 159.82 113.552 159.773V158.141C113.661 158.208 113.797 158.279 113.958 158.352C114.119 158.419 114.294 158.482 114.481 158.539C114.674 158.591 114.872 158.635 115.075 158.672C115.284 158.703 115.484 158.719 115.677 158.719C116.119 158.719 116.52 158.633 116.88 158.461C117.244 158.289 117.554 158.034 117.81 157.695C118.065 157.357 118.26 156.938 118.395 156.438C118.536 155.932 118.606 155.349 118.606 154.688H118.575C118.481 154.854 118.356 155.013 118.2 155.164C118.049 155.31 117.875 155.44 117.677 155.555C117.479 155.664 117.257 155.753 117.013 155.82C116.773 155.888 116.515 155.922 116.239 155.922C115.77 155.922 115.333 155.841 114.927 155.68C114.526 155.513 114.177 155.279 113.88 154.977C113.583 154.674 113.349 154.307 113.177 153.875C113.01 153.443 112.927 152.961 112.927 152.43C112.927 151.846 113.023 151.32 113.216 150.852C113.409 150.378 113.674 149.977 114.013 149.648C114.351 149.315 114.75 149.06 115.208 148.883C115.666 148.701 116.164 148.609 116.7 148.609C117.205 148.609 117.682 148.706 118.13 148.898C118.583 149.086 118.979 149.388 119.317 149.805C119.661 150.216 119.932 150.75 120.13 151.406C120.333 152.062 120.435 152.857 120.435 153.789ZM118.544 152.594C118.544 152.219 118.494 151.878 118.395 151.57C118.302 151.263 118.169 151 117.997 150.781C117.825 150.562 117.619 150.393 117.38 150.273C117.145 150.154 116.888 150.094 116.606 150.094C116.356 150.094 116.117 150.146 115.888 150.25C115.664 150.349 115.466 150.492 115.294 150.68C115.127 150.867 114.994 151.094 114.895 151.359C114.797 151.625 114.747 151.919 114.747 152.242C114.747 152.596 114.794 152.909 114.888 153.18C114.987 153.451 115.122 153.68 115.294 153.867C115.466 154.049 115.672 154.19 115.911 154.289C116.156 154.383 116.424 154.43 116.716 154.43C116.976 154.43 117.216 154.383 117.435 154.289C117.659 154.19 117.851 154.06 118.013 153.898C118.179 153.732 118.31 153.536 118.403 153.312C118.497 153.089 118.544 152.849 118.544 152.594Z" fill="white"/>
  <path d="M157.742 148.016H154.656V151.102H153.367V148.016H150.281V146.727H153.367V143.633H154.656V146.727H157.742V148.016Z" fill="white"/>
  <path d="M171 163.297H163V161.961H171V163.297Z" fill="white"/>
  <path d="M207.864 148.156L204.755 160H203.583L201.091 154.211H199.716V153.109H202.083L204.114 157.945L206.653 148.156H207.864Z" fill="white"/>
  <path d="M151.5 165L169 143" stroke="white" stroke-width="1.3"/>
</svg>
